<?xml version="1.0" encoding="UTF-8"?>
<svg width="195px" height="126px" viewBox="0 0 194 126" version="1.1" xmlns="http://www.w3.org/2000/svg" xmlns:xlink="http://www.w3.org/1999/xlink">
    <!-- Generator: sketchtool 58 (101010) - https://sketch.com -->
    <title>9D78E4C7-A571-49AD-9EFD-C1B924DA7F71@1.00x</title>
    <desc>Created with sketchtool.</desc>
    <g id="Landing-and-404" stroke="none" stroke-width="1" fill="none" fill-rule="evenodd">
        <g id="Desktop-Copy-10" fill-rule="nonzero">
            <g id="Group-45">
                <g id="Group">
                    <rect id="Rectangle" fill="#CCCCE3" transform="translate(45.571453, 33.258498) rotate(90.000000) translate(-45.571453, -33.258498) " x="37.7636532" y="3.11929802" width="15.6156" height="60.2784"></rect>
                    <rect id="Rectangle" fill="#556B56" transform="translate(45.510629, 48.922474) rotate(90.000000) translate(-45.510629, -48.922474) " x="37.7028288" y="18.7832736" width="15.6156" height="60.2784"></rect>
                    <g transform="translate(82.992000, 4.368000)">
                        <path d="M8.9544,31.9956 C8.9544,31.9956 6.006,6.7704 8.9544,3.276 C11.9028,-0.2184 20.202,-2.73 20.9664,7.4256 C21.84,17.472 20.9664,31.9956 20.9664,31.9956 L8.9544,31.9956 Z" id="Path" fill="#427B83"></path>
                        <rect id="Rectangle" fill="#EAE1D3" x="2.184" y="25.0068" width="24.6792" height="25.8804"></rect>
                        <path d="M8.736,16.8168 C8.736,16.8168 4.8048,7.9716 2.4024,8.19 C-2.6208,8.6268 1.5288,24.3516 8.736,23.5872 C14.0868,23.0412 19.9836,24.6792 21.294,23.5872 C22.6044,22.4952 28.8288,17.1444 26.8632,11.5752 C24.8976,5.8968 21.6216,15.1788 19.4376,16.2708 C17.2536,17.3628 8.736,16.8168 8.736,16.8168 Z" id="Path" fill="#427B83"></path>
                    </g>
                    <path d="M18.7824,55.146 C18.7824,55.146 187.0596,53.3988 193.284,55.146 C199.5084,56.8932 200.1636,65.6292 187.4964,65.6292 C174.9384,65.6292 16.5984,66.2844 7.3164,65.6292 C-1.9656,64.974 -0.3276,55.146 7.3164,55.146 C14.9604,55.146 18.7824,55.146 18.7824,55.146 Z" id="Path" fill="#64454A"></path>
                    <g transform="translate(120.120000, 0.000000)">
                        <rect id="Rectangle" fill="#CCCCE3" x="0" y="5.2416" width="51.2148" height="50.1228"></rect>
                        <g transform="translate(1.092000, 0.000000)" fill="#427B83" id="Path">
                            <path d="M21.9492,110.5104 C19.656,100.0272 22.0584,96.096 25.5528,90.636 C27.846,87.0324 30.6852,82.446 32.76,74.5836 C35.8176,62.5716 29.8116,50.8872 24.4608,40.6224 C21.294,34.398 18.564,29.1564 18.1272,24.57 C17.6904,18.564 19.0008,13.9776 22.0584,10.92 C26.6448,6.3336 33.306,6.8796 33.6336,6.9888 L33.5244,8.0808 C33.4152,8.0808 26.9724,7.5348 22.8228,11.7936 C19.9836,14.6328 18.7824,18.8916 19.2192,24.57 C19.5468,28.938 22.2768,34.1796 25.4436,40.1856 C30.9036,50.6688 37.0188,62.5716 33.852,75.0204 C31.7772,83.1012 28.8288,87.6876 26.5356,91.4004 C23.1504,96.8604 20.8572,100.3548 23.0412,110.5104 L21.9492,110.5104 Z"></path>
                            <path d="M20.748,103.8492 C20.748,103.8492 26.5356,106.6884 27.1908,112.6944 C27.846,118.7004 26.5356,126.2352 27.1908,127.1088 C27.846,127.9824 10.4832,116.4072 20.748,103.8492 Z"></path>
                            <path d="M24.7884,92.4924 C24.7884,92.4924 24.1332,98.9352 18.6732,101.556 C13.2132,104.1768 5.6784,105.4872 5.1324,106.47 C4.4772,107.3436 9.6096,87.0324 24.7884,92.4924 Z"></path>
                            <path d="M24.8976,92.1648 C24.8976,92.1648 31.2312,93.4752 33.306,99.1536 C35.3808,104.832 35.9268,112.476 36.6912,113.1312 C37.4556,113.7864 17.9088,106.7976 24.8976,92.1648 Z"></path>
                            <path d="M32.3232,75.7848 C32.3232,75.7848 31.668,82.2276 26.208,84.8484 C20.748,87.4692 13.2132,88.7796 12.6672,89.7624 C12.012,90.636 17.0352,70.3248 32.3232,75.7848 Z"></path>
                            <path d="M34.1796,74.9112 C34.1796,74.9112 40.5132,76.2216 42.588,81.9 C44.6628,87.5784 45.2088,95.2224 45.9732,95.8776 C46.7376,96.5328 27.0816,89.4348 34.1796,74.9112 Z"></path>
                            <path d="M34.0704,59.514 C34.0704,59.514 33.852,65.9568 28.6104,69.0144 C23.3688,72.072 15.9432,73.9284 15.5064,74.9112 C14.9604,75.7848 18.4548,55.146 34.0704,59.514 Z"></path>
                            <path d="M32.6508,59.2956 C32.6508,59.2956 38.8752,57.5484 43.3524,61.698 C47.8296,65.8476 51.7608,72.2904 52.8528,72.5088 C53.8356,72.7272 33.0876,75.4572 32.6508,59.2956 Z"></path>
                            <path d="M26.9724,43.3524 C26.9724,43.3524 27.5184,49.7952 22.7136,53.3988 C17.9088,57.0024 10.7016,59.8416 10.374,60.8244 C9.9372,61.8072 10.92,40.95 26.9724,43.3524 Z"></path>
                            <path d="M26.9724,42.9156 C26.9724,42.9156 32.4324,39.5304 37.8924,42.1512 C43.3524,44.8812 49.0308,50.0136 50.0136,49.9044 C51.1056,49.7952 31.9956,58.3128 26.9724,42.9156 Z"></path>
                            <path d="M20.202,29.3748 C20.202,29.3748 20.748,35.8176 15.9432,39.4212 C11.1384,43.0248 3.9312,45.864 3.6036,46.8468 C3.1668,47.8296 4.1496,26.8632 20.202,29.3748 Z"></path>
                            <path d="M20.202,28.8288 C20.202,28.8288 25.662,25.4436 31.122,28.0644 C36.582,30.7944 42.2604,35.9268 43.2432,35.8176 C44.3352,35.8176 25.2252,44.3352 20.202,28.8288 Z"></path>
                            <path d="M20.4204,13.65 C20.4204,13.65 19.5468,19.9836 13.9776,22.4952 C8.4084,24.8976 0.8736,25.9896 0.2184,26.8632 C-0.4368,27.7368 5.3508,7.5348 20.4204,13.65 Z"></path>
                            <path d="M29.5932,5.6784 C29.5932,5.6784 25.662,10.7016 19.5468,10.0464 C13.5408,9.3912 6.4428,6.552 5.46,6.9888 C4.4772,7.4256 19.5468,-7.098 29.5932,5.6784 Z"></path>
                            <path d="M20.748,12.6672 C20.748,12.6672 27.0816,11.5752 31.122,16.0524 C35.1624,20.5296 38.5476,27.4092 39.5304,27.7368 C40.5132,28.0644 19.5468,28.8288 20.748,12.6672 Z"></path>
                            <path d="M28.0644,4.8048 C28.0644,4.8048 34.1796,2.73 38.8752,6.6612 C43.5708,10.5924 47.8296,16.8168 48.9216,17.0352 C50.0136,17.2536 29.3748,20.9664 28.0644,4.8048 Z"></path>
                        </g>
                    </g>
                </g>
            </g>
        </g>
    </g>
</svg>