<svg xmlns="http://www.w3.org/2000/svg" xmlns:xlink="http://www.w3.org/1999/xlink" width="92px" height="95px" viewBox="0 0 92 95" version="1.1">
    <title>Shape Copy</title>
    <g id="Page-1" stroke="none" stroke-width="1" fill="none" fill-rule="evenodd">
        <g id="Hebrew" transform="translate(-238.000000, -92.000000)" fill="#417054" fill-rule="nonzero">
            <path d="M250.040725,187 C247.7239,187 244.967386,186.692515 242.498361,185.206339 C239.64038,183.515172 238,180.457406 238,176.818836 L238,128.919532 C238,125.725107 239.572735,122.786918 242.210871,121.027422 L279.483003,93.5758597 L279.550647,93.5246123 C282.645384,91.4917959 286.636411,91.4917959 289.714236,93.5246123 L289.798792,93.5758597 L325.768766,121.027422 C328.389991,122.786918 329.962726,125.708024 329.962726,128.90245 C329.962726,129.944482 330.01346,175.930546 329.996549,176.648011 C329.945815,178.69791 329.658326,181.311531 327.899569,183.429759 C326.039344,185.667566 323.096808,186.829175 319.105781,186.86334 C307.42019,186.982918 295.210354,184.745111 284.251941,180.525736 C272.701639,184.403461 261.591027,186.572938 251.190682,186.948753 C250.835548,187 250.446592,187 250.040725,187 Z M282.611562,98.2052147 L245.339431,125.656777 L245.271786,125.708024 C244.172563,126.425489 243.513028,127.638346 243.513028,128.953697 L243.513028,176.853001 C243.513028,177.997528 243.817429,179.552034 245.288697,180.423241 C246.962899,181.431108 249.228991,181.482356 250.987748,181.414026 C259.054357,181.123623 267.611389,179.688694 276.506644,177.143403 C271.771527,174.734772 267.493011,171.933243 263.468162,168.61924 C262.740984,168.021353 262.047627,167.440548 261.371182,166.876826 C258.64849,164.57069 253.693529,159.77051 250.937015,153.620814 C248.129767,147.35154 248.281967,141.167678 251.393615,135.752529 C254.268507,130.764441 259.291113,127.723758 264.854875,127.604181 C270.604659,127.467521 276.658844,129.688245 282.865229,134.215105 C282.915962,134.266352 282.983607,134.300517 283.03434,134.334682 C283.507852,134.693414 283.998274,135.052147 284.488697,135.410879 C284.640897,135.291301 284.793097,135.171724 284.962209,135.069229 C288.259879,132.660598 291.236238,130.713194 295.024331,129.022027 C297.949957,127.723758 301.14616,127.228366 304.291631,127.621263 C307.538568,128.031243 310.599482,129.38076 313.085418,131.516071 C317.482312,135.274219 319.680759,141.287256 318.818292,147.197797 C317.668335,155.141155 312.493529,161.922904 308.350302,166.227692 C304.088697,170.652057 298.660224,174.427287 292.200173,177.433805 C300.875582,180.064509 310.125971,181.431108 319.038136,181.345696 C320.610871,181.328613 322.69094,181.072376 323.654875,179.927849 C324.162209,179.295797 324.415876,178.270847 324.466609,176.596763 C324.48352,175.366824 324.449698,131.140256 324.432787,128.987862 L324.432787,128.97078 C324.432787,127.655428 323.773253,126.442571 322.674029,125.725107 L322.589474,125.673859 L322.504918,125.622612 L286.636411,98.2222971 C285.401898,97.4194201 283.829163,97.4194201 282.611562,98.2052147 Z M265.362209,133.15599 C265.243831,133.15599 265.125453,133.15599 265.007075,133.15599 C261.388093,133.241403 258.107334,135.240054 256.196376,138.536975 C250.243658,148.871881 261.388093,159.56552 264.939431,162.589121 C265.598965,163.135761 266.258499,163.699483 266.968766,164.280288 C271.636238,168.123848 276.709577,171.232861 282.493184,173.795235 C283.118896,174.068555 283.744607,174.341875 284.370319,174.598112 C292.724418,171.557429 299.455047,167.406383 304.393097,162.281636 C307.961346,158.574736 312.425884,152.800854 313.355997,146.343673 C313.947886,142.329287 312.476618,138.263655 309.51717,135.735446 C306.134944,132.848505 301.43365,132.199371 297.273512,134.078445 C294.178775,135.462126 291.726661,137.033715 288.936324,139.032367 C291.405349,141.338503 293.671441,144.003372 295.176531,147.249045 C296.377222,149.811418 297.002934,152.595864 297.002934,155.329063 C297.019845,159.087211 295.734599,162.452461 293.434685,164.792762 C291.11786,167.133064 287.837101,168.41425 284.421053,168.328838 C281.038827,168.243425 277.741156,166.774331 275.373598,164.29737 C272.989129,161.820409 271.822261,158.506406 272.008283,154.748258 C272.143572,151.74174 273.175151,148.496067 274.900086,145.660373 C276.219154,143.473814 278.062468,141.218926 280.210181,139.117779 C280.091803,139.032367 279.973425,138.946954 279.838136,138.844459 C279.787403,138.810294 279.719758,138.759047 279.669025,138.724882 C274.578775,135.017982 269.776014,133.15599 265.362209,133.15599 Z M284.556342,142.585525 C282.510095,144.515846 280.768248,146.59991 279.584469,148.530232 C277.3522,152.237132 276.405177,157.344797 279.313891,160.402562 C280.666782,161.820409 282.611562,162.691616 284.522519,162.742864 C286.433477,162.794111 288.259879,162.110811 289.494392,160.846707 C291.202416,159.121376 291.456083,156.644414 291.456083,155.346145 L291.456083,155.329063 C291.456083,153.415824 290.999482,151.451337 290.170837,149.640593 C288.902502,146.94156 286.856255,144.635424 284.556342,142.585525 Z" id="Shape-Copy"/>
        </g>
    </g>
</svg>